<svg width="812" height="198" viewBox="0 0 812 198" fill="none" xmlns="http://www.w3.org/2000/svg">
<path d="M658.686 105.224C671.094 106.629 687.549 106.816 705.702 105.266C705.318 95.7128 702.908 85.2265 698.108 73.732C684.036 40.0376 658.631 38.0626 637.689 49.0301C616.746 59.9975 618.112 100.632 658.686 105.224Z" fill="url(#paint0_linear_1_203)"/>
<path d="M9.61198 258.962C19.4162 249.255 58.2711 223.44 135.257 197.838C212.243 172.236 265.245 170.119 282.123 172.26C327.864 167.83 466.999 203.283 541.494 203.987C615.989 204.692 667.479 171.604 687.872 150.725C705.713 132.459 712.179 107.426 698.108 73.732C684.036 40.0376 658.631 38.0626 637.689 49.0301C616.746 59.9975 618.112 100.632 658.686 105.224C699.261 109.817 783.101 101.397 828.153 61.7698C864.196 30.0681 857.928 -29.2657 855.609 -49.5584C856.771 -66.2669 841.539 -110.176 818.131 -141.602C794.722 -173.028 731.194 -201.489 723.185 -202.167" stroke="url(#paint1_linear_1_203)" stroke-width="28"/>
<defs>
<linearGradient id="paint0_linear_1_203" x1="-113.559" y1="317.916" x2="800.82" y2="-416.907" gradientUnits="userSpaceOnUse">
<stop stop-color="#1C1836"/>
<stop offset="1" stop-color="#3C298D" stop-opacity="0"/>
</linearGradient>
<linearGradient id="paint1_linear_1_203" x1="394.966" y1="-141.439" x2="462.419" y2="223.129" gradientUnits="userSpaceOnUse">
<stop stop-color="#685EEB"/>
<stop offset="1" stop-color="#56EFC4"/>
</linearGradient>
</defs>
</svg>
