<svg width="532" height="581" viewBox="0 0 532 581" fill="none" xmlns="http://www.w3.org/2000/svg">
<path d="M522 191.272V389.701C522 418.904 506.369 445.857 481.04 460.336L306.31 560.283C281.333 574.572 250.64 574.572 225.663 560.283C210.33 551.524 200.876 535.201 200.876 517.522V371.48C200.876 352.309 190.69 334.603 174.165 324.95L116.382 292.683C103 284.874 86.204 294.527 86.204 310.036V447.294C86.204 462.099 70.221 471.372 57.4074 464.024L50.9329 460.336C25.6309 445.857 10 418.904 10 389.728V191.272C10 191.028 10 190.784 10 190.54C10.3251 155.426 48.7928 133.923 79.269 151.358L245.926 246.695C274.669 263.127 292.413 293.713 292.413 326.848V492.603L326.356 474.707C333.942 470.694 338.709 462.804 338.709 454.208V302.417C338.709 269.282 320.966 238.696 292.25 222.265L82.7636 102.442L139.815 69.8229C151.897 62.9085 166.688 62.9085 178.77 69.8229L366.883 177.389C395.598 193.821 413.342 224.407 413.342 257.541V423.324L439.619 409.468C451.945 402.96 459.666 390.162 459.666 376.198V233.111C459.666 199.976 441.922 169.39 413.18 152.958L203.801 33.2174L225.663 20.7173C250.64 6.42757 281.333 6.42757 306.31 20.7173L481.04 120.637C506.369 135.143 522 162.096 522 191.272Z" fill="url(#paint0_linear_2662_3337)"/>
<defs>
<linearGradient id="paint0_linear_2662_3337" x1="313.172" y1="68.2995" x2="261.252" y2="570.509" gradientUnits="userSpaceOnUse">
<stop stop-color="#9A96FF"/>
<stop offset="1" stop-color="#66D0DA"/>
</linearGradient>
</defs>
</svg>
