<svg width="576" height="207" viewBox="0 0 576 207" fill="none" xmlns="http://www.w3.org/2000/svg">
<path d="M189 66.8525V140.033C189 150.803 183.23 160.743 173.88 166.083L109.38 202.943C100.16 208.213 88.83 208.213 79.61 202.943C73.95 199.713 70.46 193.693 70.46 187.173V133.312C70.46 126.243 66.7 119.713 60.6 116.153L39.27 104.253C34.33 101.373 28.13 104.933 28.13 110.653V161.273C28.13 166.733 22.23 170.153 17.5 167.443L15.11 166.083C5.77 160.743 0 150.802 0 140.042V66.8525C0 66.7625 0 66.6725 0 66.5825C0.12 53.6325 14.32 45.7025 25.57 52.1325L87.09 87.2925C97.7 93.3525 104.25 104.632 104.25 116.853V177.982L116.78 171.383C119.58 169.903 121.34 166.993 121.34 163.823V107.842C121.34 95.6225 114.79 84.3425 104.19 78.2825L26.86 34.0925L47.92 22.0625C52.38 19.5125 57.84 19.5125 62.3 22.0625L131.74 61.7325C142.34 67.7925 148.89 79.0725 148.89 91.2925V152.432L158.59 147.323C163.14 144.923 165.99 140.202 165.99 135.053V82.2825C165.99 70.0625 159.44 58.7825 148.83 52.7225L71.54 8.5625L79.61 3.9525C88.83 -1.3175 100.16 -1.3175 109.38 3.9525L173.88 40.8025C183.23 46.1525 189 56.0925 189 66.8525Z" fill="url(#paint0_linear_2662_3331)"/>
<path d="M277.768 153.367C274.099 153.367 271.197 152.301 269.064 150.167C266.931 147.949 265.011 144.023 263.304 138.391L245.512 78.4873H266.76L278.536 125.975L287.88 89.6233C289.075 84.8446 290.611 81.4739 292.488 79.5113C294.451 77.5486 297.096 76.5673 300.424 76.5673C303.667 76.5673 306.227 77.5486 308.104 79.5113C310.067 81.4739 311.645 84.8446 312.84 89.6233L322.44 126.359L334.6 78.4873H355.08L337.544 138.391C335.923 144.023 334.045 147.949 331.912 150.167C329.864 152.301 326.963 153.367 323.208 153.367C319.283 153.367 316.253 152.301 314.12 150.167C312.072 147.949 310.237 144.066 308.616 138.519L300.296 109.335L291.976 138.519C290.355 144.066 288.52 147.949 286.472 150.167C284.424 152.301 281.523 153.367 277.768 153.367ZM391.248 153.367C384.763 153.367 379.003 151.703 373.968 148.375C369.019 145.047 365.136 140.439 362.32 134.551C359.504 128.663 358.096 121.922 358.096 114.327C358.096 106.903 359.461 100.375 362.192 94.7433C364.923 89.0259 368.677 84.5886 373.456 81.4313C378.235 78.1886 383.739 76.5673 389.968 76.5673C394.747 76.5673 398.971 77.5059 402.64 79.3833C406.395 81.1753 409.424 83.6926 411.728 86.9353L412.88 78.4873H430.032V151.447H412.88L411.728 141.847C409.509 145.431 406.608 148.247 403.024 150.295C399.44 152.343 395.515 153.367 391.248 153.367ZM394.96 135.191C399.739 135.191 403.536 133.314 406.352 129.559C409.168 125.805 410.576 120.727 410.576 114.327C410.576 107.927 409.168 102.893 406.352 99.2233C403.536 95.4686 399.739 93.5913 394.96 93.5913C390.096 93.5913 386.256 95.4686 383.44 99.2233C380.624 102.893 379.216 107.927 379.216 114.327C379.216 120.727 380.624 125.805 383.44 129.559C386.256 133.314 390.096 135.191 394.96 135.191ZM443.183 151.447V109.207C443.183 98.7113 445.999 90.6473 451.631 85.0153C457.348 79.3833 465.498 76.5673 476.079 76.5673C477.188 76.5673 478.938 76.6526 481.327 76.8233C483.716 76.9086 486.106 77.2073 488.495 77.7193V95.5113C486.874 95.2553 485.338 95.0419 483.887 94.8713C482.436 94.6153 480.815 94.4873 479.023 94.4873C476.378 94.4873 473.903 94.8713 471.599 95.6393C469.295 96.4073 467.418 97.8579 465.967 99.9913C464.602 102.125 463.919 105.239 463.919 109.335V151.447H443.183ZM497.808 174.487V78.4873H515.344L517.008 89.2393C519.483 85.1433 522.725 82.0286 526.736 79.8953C530.747 77.6766 535.056 76.5673 539.664 76.5673C546.149 76.5673 551.781 78.1886 556.56 81.4313C561.339 84.6739 565.051 89.1539 567.696 94.8713C570.341 100.589 571.664 107.202 571.664 114.711C571.664 121.623 570.683 127.511 568.72 132.375C566.757 137.239 564.155 141.25 560.912 144.407C557.669 147.479 554.085 149.741 550.16 151.191C546.235 152.642 542.352 153.367 538.512 153.367C534.501 153.367 530.747 152.599 527.248 151.063C523.835 149.527 520.933 147.266 518.544 144.279V174.487H497.808ZM534.16 136.343C539.195 136.343 543.163 134.509 546.064 130.839C549.051 127.085 550.544 122.007 550.544 115.607C550.544 109.207 549.051 104.13 546.064 100.375C543.163 96.6206 539.195 94.7433 534.16 94.7433C529.381 94.7433 525.584 96.6206 522.768 100.375C519.952 104.13 518.544 109.207 518.544 115.607C518.544 122.007 519.952 127.085 522.768 130.839C525.584 134.509 529.381 136.343 534.16 136.343Z" fill="#444444"/>
<defs>
<linearGradient id="paint0_linear_2662_3331" x1="111.913" y1="21.5007" x2="92.7828" y2="206.718" gradientUnits="userSpaceOnUse">
<stop stop-color="#9A96FF"/>
<stop offset="1" stop-color="#66D0DA"/>
</linearGradient>
</defs>
</svg>
