<svg width="51" height="51" viewBox="0 0 51 51" fill="none" xmlns="http://www.w3.org/2000/svg">
<rect width="51" height="51" rx="6" fill="#CECEFA"/>
<path d="M35.2158 19.0293C36.504 19.0293 37.7394 19.541 38.6503 20.4519C39.5612 21.3628 40.0729 22.5982 40.0729 23.8864C40.0729 25.1746 39.5612 26.4101 38.6503 27.321C37.7394 28.2319 36.504 28.7436 35.2158 28.7436M22.2634 19.0293V36.8388C22.2634 37.2682 22.0928 37.68 21.7892 37.9837C21.4856 38.2873 21.0737 38.4579 20.6443 38.4579H19.0253C18.5959 38.4579 18.1841 38.2873 17.8805 37.9837C17.5768 37.68 17.4062 37.2682 17.4062 36.8388V28.7436" stroke="white" stroke-linecap="round" stroke-linejoin="round"/>
<path d="M25.5011 19.0292L32.8257 12.9254C33.0385 12.7481 33.2975 12.6352 33.5722 12.5998C33.8469 12.5645 34.126 12.6081 34.3768 12.7257C34.6276 12.8433 34.8397 13.0299 34.9882 13.2637C35.1367 13.4975 35.2155 13.7688 35.2154 14.0458V33.7269C35.2155 34.0039 35.1367 34.2752 34.9882 34.509C34.8397 34.7428 34.6276 34.9294 34.3768 35.047C34.126 35.1646 33.8469 35.2083 33.5722 35.1729C33.2975 35.1375 33.0385 35.0246 32.8257 34.8473L25.5011 28.7435H12.5487C12.1193 28.7435 11.7075 28.5729 11.4039 28.2693C11.1003 27.9657 10.9297 27.5538 10.9297 27.1244V20.6483C10.9297 20.2189 11.1003 19.8071 11.4039 19.5034C11.7075 19.1998 12.1193 19.0292 12.5487 19.0292H25.5011Z" stroke="white" stroke-linecap="round" stroke-linejoin="round"/>
</svg>
