<svg width="59" height="56" viewBox="0 0 59 56" fill="none" xmlns="http://www.w3.org/2000/svg">
<g filter="url(#filter0_i_2912_7810)">
<path d="M24.7607 2.52156C26.6795 -0.840759 31.5271 -0.840762 33.4459 2.52155L39.2844 12.7522C40.0003 14.0067 41.2239 14.8903 42.6399 15.1755L54.1911 17.5018C58.0173 18.2723 59.5247 22.9339 56.8743 25.7988L48.9596 34.3541C47.9695 35.4243 47.4959 36.8734 47.6627 38.3217L48.9962 49.8975C49.4406 53.7554 45.5092 56.6252 41.9702 55.0261L31.1621 50.1427C29.8533 49.5513 28.3534 49.5513 27.0445 50.1427L16.2364 55.0261C12.6974 56.6251 8.76605 53.7554 9.21046 49.8975L10.5439 38.3217C10.7108 36.8734 10.2371 35.4243 9.24703 34.3541L1.33235 25.7988C-1.31812 22.9338 0.189361 18.2723 4.0155 17.5018L15.5668 15.1755C16.9828 14.8903 18.2063 14.0067 18.9222 12.7522L24.7607 2.52156Z" fill="url(#paint0_linear_2912_7810)"/>
</g>
<defs>
<filter id="filter0_i_2912_7810" x="0" y="0" width="58.207" height="57.4785" filterUnits="userSpaceOnUse" color-interpolation-filters="sRGB">
<feFlood flood-opacity="0" result="BackgroundImageFix"/>
<feBlend mode="normal" in="SourceGraphic" in2="BackgroundImageFix" result="shape"/>
<feColorMatrix in="SourceAlpha" type="matrix" values="0 0 0 0 0 0 0 0 0 0 0 0 0 0 0 0 0 0 127 0" result="hardAlpha"/>
<feOffset dy="2"/>
<feGaussianBlur stdDeviation="6.2"/>
<feComposite in2="hardAlpha" operator="arithmetic" k2="-1" k3="1"/>
<feColorMatrix type="matrix" values="0 0 0 0 1 0 0 0 0 1 0 0 0 0 1 0 0 0 0.84 0"/>
<feBlend mode="normal" in2="shape" result="effect1_innerShadow_2912_7810"/>
</filter>
<linearGradient id="paint0_linear_2912_7810" x1="29.1033" y1="-5.08789" x2="29.1033" y2="65.3862" gradientUnits="userSpaceOnUse">
<stop offset="0.355769" stop-color="#FFE022"/>
<stop offset="0.706731" stop-color="#FFC812"/>
<stop offset="0.889423" stop-color="#EFA600"/>
</linearGradient>
</defs>
</svg>
