<svg width="10" height="10" viewBox="0 0 10 10" fill="none" xmlns="http://www.w3.org/2000/svg">
<g clip-path="url(#clip0_2738_2849)">
<path d="M6.37087 6.11495C6.30971 6.09495 5.92317 5.92072 6.16471 5.18649H6.16125C6.79087 4.53803 7.27202 3.49457 7.27202 2.46726C7.27202 0.887647 6.22163 0.0595703 5.00087 0.0595703C3.77933 0.0595703 2.73471 0.887263 2.73471 2.46726C2.73471 3.4988 3.21317 4.54649 3.84663 5.19342C4.09356 5.84111 3.65202 6.08149 3.55971 6.11495C2.28125 6.57765 0.78125 7.42034 0.78125 8.25226V8.56419C0.78125 9.69765 2.97894 9.95534 5.01279 9.95534C7.04971 9.95534 9.21971 9.69765 9.21971 8.56419V8.25226C9.21971 7.39534 7.7124 6.55919 6.37087 6.11495ZM4.24933 9.46457C4.24933 8.48419 4.87356 7.16072 4.87356 7.16072L4.44163 6.82188C4.44163 6.49803 5.00048 6.15919 5.00048 6.15919C5.00048 6.15919 5.55779 6.50342 5.55779 6.82188L5.1274 7.16072C5.1274 7.16072 5.75163 8.47919 5.75163 9.47534C5.75163 9.63149 4.24933 9.59534 4.24933 9.46457Z" fill="white"/>
</g>
<defs>
<clipPath id="clip0_2738_2849">
<rect width="10" height="10" fill="white"/>
</clipPath>
</defs>
</svg>
