<svg width="10" height="10" viewBox="0 0 10 10" fill="none" xmlns="http://www.w3.org/2000/svg">
<path d="M8.47083 1.27517C8.38942 1.24682 8.30122 1.24442 8.21838 1.2683C8.13555 1.29218 8.06216 1.34117 8.00833 1.40851L6.66667 3.08351L5.325 1.40851C5.16667 1.21267 4.83333 1.21267 4.675 1.40851L3.33333 3.08351L1.99167 1.40851C1.87917 1.27101 1.69583 1.21684 1.52917 1.27517C1.3625 1.33351 1.25 1.49184 1.25 1.66684V6.25017H8.75V1.66684C8.75 1.49184 8.6375 1.33351 8.47083 1.27517ZM1.25 7.91684C1.25 8.37517 1.625 8.75017 2.08333 8.75017H7.91667C8.375 8.75017 8.75 8.37517 8.75 7.91684V7.08351H1.25V7.91684Z" fill="#EFA782"/>
</svg>
