<svg width="52" height="15" viewBox="0 0 52 15" fill="none" xmlns="http://www.w3.org/2000/svg">
<rect width="52" height="15" rx="7.5" fill="black" fill-opacity="0.5"/>
<path d="M7.90833 11V4.25H9.23333L11.3 9.69167H11.3333L13.4083 4.25H14.725V11H13.8V5.375H13.7667L11.6667 11H10.9083L8.8 5.36667H8.76667V11H7.90833ZM18.4578 11.1C18.0078 11.1 17.605 10.9944 17.2495 10.7833C16.8939 10.5667 16.6134 10.2639 16.4078 9.875C16.2078 9.48056 16.1078 9.01667 16.1078 8.48333C16.1078 7.95556 16.2078 7.5 16.4078 7.11667C16.6078 6.72778 16.88 6.42778 17.2245 6.21667C17.5689 6.00556 17.9634 5.9 18.4078 5.9C18.8245 5.9 19.1939 5.99444 19.5161 6.18333C19.8439 6.37222 20.1023 6.64444 20.2911 7C20.48 7.35556 20.5745 7.775 20.5745 8.25833V8.65833H16.9745C17.0078 9.16389 17.1578 9.56667 17.4245 9.86667C17.6911 10.1667 18.0328 10.3167 18.4495 10.3167C18.7495 10.3167 19.005 10.2417 19.2161 10.0917C19.4273 9.94167 19.5689 9.73611 19.6411 9.475H20.5578C20.4911 9.81389 20.3578 10.1056 20.1578 10.35C19.9578 10.5889 19.7134 10.775 19.4245 10.9083C19.1356 11.0361 18.8134 11.1 18.4578 11.1ZM17.0161 7.975H19.6995C19.6606 7.56389 19.5245 7.24444 19.2911 7.01667C19.0578 6.78889 18.7606 6.675 18.3995 6.675C18.0439 6.675 17.7439 6.79167 17.4995 7.025C17.255 7.25278 17.0939 7.56944 17.0161 7.975ZM21.8111 11V6H22.6944V6.80833H22.7277C22.8555 6.51389 23.0416 6.29167 23.2861 6.14167C23.5361 5.98611 23.8277 5.90833 24.1611 5.90833C24.5 5.90833 24.8 5.99167 25.0611 6.15833C25.3277 6.31944 25.5305 6.55278 25.6694 6.85833H25.6944C25.8611 6.55278 26.0777 6.31944 26.3444 6.15833C26.6111 5.99167 26.9194 5.90833 27.2694 5.90833C27.625 5.90833 27.9388 5.99167 28.2111 6.15833C28.4833 6.31944 28.6916 6.55 28.8361 6.85C28.9861 7.15 29.0611 7.50278 29.0611 7.90833V11H28.1611V8.04167C28.1611 7.625 28.0611 7.30278 27.8611 7.075C27.6611 6.84167 27.3833 6.725 27.0277 6.725C26.6777 6.725 26.4 6.84167 26.1944 7.075C25.9888 7.30278 25.8861 7.625 25.8861 8.04167V11H24.9861V8.04167C24.9861 7.625 24.8833 7.30278 24.6777 7.075C24.4777 6.84167 24.2 6.725 23.8444 6.725C23.4944 6.725 23.2166 6.84167 23.0111 7.075C22.8111 7.30278 22.7111 7.625 22.7111 8.04167V11H21.8111ZM32.9999 11.1C32.2665 11.1 31.7554 10.7944 31.4665 10.1833H31.4332V11H30.5415V4H31.4415V6.80833H31.4749C31.7582 6.20278 32.2665 5.9 32.9999 5.9C33.4165 5.9 33.7804 6.00833 34.0915 6.225C34.4026 6.44167 34.6443 6.74444 34.8165 7.13333C34.9888 7.52222 35.0749 7.97778 35.0749 8.5C35.0749 9.01667 34.9888 9.47222 34.8165 9.86667C34.6443 10.2556 34.4026 10.5583 34.0915 10.775C33.7804 10.9917 33.4165 11.1 32.9999 11.1ZM32.7582 10.3C33.1915 10.3 33.536 10.1361 33.7915 9.80833C34.0471 9.48056 34.1749 9.04444 34.1749 8.5C34.1749 7.95556 34.0471 7.51944 33.7915 7.19167C33.536 6.86389 33.1915 6.7 32.7582 6.7C32.3415 6.7 32.0165 6.83333 31.7832 7.1C31.5554 7.36111 31.4415 7.70556 31.4415 8.13333V8.86667C31.4415 9.29444 31.5554 9.64167 31.7832 9.90833C32.0165 10.1694 32.3415 10.3 32.7582 10.3ZM38.3797 11.1C37.9297 11.1 37.5269 10.9944 37.1714 10.7833C36.8158 10.5667 36.5352 10.2639 36.3297 9.875C36.1297 9.48056 36.0297 9.01667 36.0297 8.48333C36.0297 7.95556 36.1297 7.5 36.3297 7.11667C36.5297 6.72778 36.8019 6.42778 37.1464 6.21667C37.4908 6.00556 37.8852 5.9 38.3297 5.9C38.7464 5.9 39.1158 5.99444 39.438 6.18333C39.7658 6.37222 40.0241 6.64444 40.213 7C40.4019 7.35556 40.4964 7.775 40.4964 8.25833V8.65833H36.8964C36.9297 9.16389 37.0797 9.56667 37.3464 9.86667C37.613 10.1667 37.9547 10.3167 38.3714 10.3167C38.6714 10.3167 38.9269 10.2417 39.138 10.0917C39.3491 9.94167 39.4908 9.73611 39.563 9.475H40.4797C40.413 9.81389 40.2797 10.1056 40.0797 10.35C39.8797 10.5889 39.6352 10.775 39.3464 10.9083C39.0575 11.0361 38.7352 11.1 38.3797 11.1ZM36.938 7.975H39.6214C39.5825 7.56389 39.4464 7.24444 39.213 7.01667C38.9797 6.78889 38.6825 6.675 38.3214 6.675C37.9658 6.675 37.6658 6.79167 37.4214 7.025C37.1769 7.25278 37.0158 7.56944 36.938 7.975ZM41.8246 11V6H42.6829V7H42.7163C42.8274 6.68889 43.0079 6.43889 43.2579 6.25C43.5135 6.05556 43.8246 5.95833 44.1913 5.95833H44.5579V6.75833H44.1413C43.6802 6.75833 43.3274 6.90556 43.0829 7.2C42.8441 7.49444 42.7246 7.89167 42.7246 8.39167V11H41.8246Z" fill="white"/>
</svg>
