<svg width="18" height="18" viewBox="0 0 18 18" fill="none" xmlns="http://www.w3.org/2000/svg">
<rect width="18" height="18" rx="9" fill="black" fill-opacity="0.5"/>
<path d="M9.13864 12.4555V13.8508M5.88281 8.26953V9.19975C5.88281 10.0632 6.22584 10.8913 6.83642 11.5019C7.44701 12.1125 8.27514 12.4555 9.13864 12.4555C10.0021 12.4555 10.8303 12.1125 11.4409 11.5019C12.0514 10.8913 12.3945 10.0632 12.3945 9.19975V8.26953" stroke="white" stroke-linecap="round" stroke-linejoin="round"/>
<path d="M10.5348 5.94415C10.5348 5.17354 9.91013 4.54883 9.13949 4.54883C8.36886 4.54883 7.74414 5.17354 7.74414 5.94415V9.19991C7.74414 9.97052 8.36886 10.5952 9.13949 10.5952C9.91013 10.5952 10.5348 9.97052 10.5348 9.19991V5.94415Z" stroke="white" stroke-linecap="round" stroke-linejoin="round"/>
</svg>
