<svg width="23" height="17" viewBox="0 0 23 17" fill="none" xmlns="http://www.w3.org/2000/svg">
<path d="M21.5 10.4432C21.5 13.2359 19.2673 15.4999 16.5133 15.4999C15.1977 15.4999 14.0005 14.9823 13.1091 14.1368C12.2054 14.7986 11.0857 15.1897 9.87329 15.1897C9.36434 15.1897 8.87157 15.1208 8.40401 14.992C7.93693 15.1208 7.44416 15.1897 6.93474 15.1897C3.93293 15.1897 1.5 12.7926 1.5 9.83452C1.5 8.33836 2.1231 6.98496 3.12719 6.01357C3.08961 5.99427 3.05251 5.97353 3.01589 5.95183C2.77616 5.81003 2.47936 5.63494 2.48602 5.40777C2.50076 4.8777 4.15554 4.54249 5.25476 4.32013C6.13328 4.14216 6.90573 3.98589 7.37947 4.00663V2.26496C7.37947 1.84245 7.71718 1.5 8.13385 1.5H8.57049C8.98716 1.5 9.32487 1.84245 9.32487 2.26496V4.00711C9.79718 3.98203 10.5777 4.14023 11.4662 4.32013C12.5654 4.54249 14.2202 4.8777 14.2354 5.40777C14.2416 5.63494 13.9453 5.81003 13.7051 5.95183C13.6865 5.96292 13.668 5.97353 13.649 5.98318C13.7146 6.0454 13.7783 6.10955 13.8402 6.17466C14.6126 5.67594 15.5302 5.38703 16.5133 5.38703C19.2673 5.38703 21.5 7.65105 21.5 10.4432Z" fill="white" stroke="white" stroke-width="3" stroke-miterlimit="10"/>
<path d="M15.1842 9.79647C15.1842 12.6601 12.7727 14.9816 9.79839 14.9816C9.29403 14.9816 8.80569 14.9148 8.34234 14.7897C7.87946 14.9144 7.39065 14.9816 6.88582 14.9816C3.91103 14.9816 1.5 12.6601 1.5 9.79647C1.5 6.9328 3.91103 4.61133 6.88582 4.61133C7.39065 4.61133 7.87899 4.67811 8.34234 4.80327C8.80522 4.67858 9.29403 4.61133 9.79839 4.61133C12.7727 4.61133 15.1842 6.9328 15.1842 9.79647Z" fill="#FB4F4E"/>
<path d="M16.4998 5.64844C13.7388 5.64844 11.5 7.85401 11.5 10.5741C11.5 13.2942 13.7388 15.5002 16.4998 15.5002C19.2608 15.5002 21.5 13.2946 21.5 10.5741C21.5 7.85354 19.2612 5.64844 16.4998 5.64844ZM16.4998 13.8979C14.6368 13.8979 13.1264 12.4099 13.1264 10.5741C13.1264 8.7383 14.6368 7.25069 16.4998 7.25069C18.3627 7.25069 19.8736 8.73877 19.8736 10.5741C19.8736 12.4094 18.3632 13.8979 16.4998 13.8979Z" fill="url(#paint0_linear_2375_1032)"/>
<path d="M19.9202 10.5742C19.9202 12.4358 18.3885 13.9448 16.4989 13.9448C14.6093 13.9448 13.0781 12.4358 13.0781 10.5742C13.0781 8.71262 14.6098 7.2041 16.4989 7.2041C18.388 7.2041 19.9202 8.71309 19.9202 10.5742Z" fill="#F9FBFD"/>
<path d="M14.1316 5.58029C14.1377 5.81749 13.8457 6.0003 13.6089 6.14837C12.588 6.78645 11.1364 6.69429 10.0381 5.92728C9.91858 5.84368 9.79389 5.74547 9.67155 5.63972C9.67249 5.66238 9.67296 5.68504 9.67296 5.70821C9.67296 6.82069 9.07345 7.72216 8.33378 7.72216C7.59411 7.72216 6.9946 6.82069 6.9946 5.70821C6.9946 5.69008 6.9946 5.67195 6.99553 5.65382C6.87882 5.75454 6.75976 5.84771 6.64586 5.92728C5.54761 6.69429 4.09593 6.78645 3.07502 6.14837C2.83877 6.0003 2.54628 5.81749 2.55284 5.58029C2.56737 5.02682 4.19811 4.6768 5.28136 4.44464C6.14712 4.2588 6.90835 4.09563 7.37521 4.11729V2.29873C7.37521 1.85757 7.70801 1.5 8.11863 1.5H8.54893C8.95954 1.5 9.29235 1.85757 9.29235 2.29873V4.11779C9.7578 4.0916 10.527 4.25679 11.4026 4.44464C12.4859 4.6768 14.1166 5.02682 14.1316 5.58029Z" fill="#39B54A"/>
<path d="M18.2826 10.2873C18.5153 10.2873 18.7038 10.4759 18.7038 10.7085C18.7038 10.9411 18.5153 11.1297 18.2826 11.1297H17.0723C16.52 11.1297 16.0723 10.682 16.0723 10.1297V8.96487C16.0723 8.72862 16.2638 8.53711 16.5 8.53711C16.7363 8.53711 16.9278 8.72862 16.9278 8.96487V9.41219C16.9278 9.89549 17.3196 10.2873 17.8029 10.2873H18.2826Z" fill="#685EEB"/>
<defs>
<linearGradient id="paint0_linear_2375_1032" x1="16.5" y1="5.64844" x2="16.5" y2="15.5002" gradientUnits="userSpaceOnUse">
<stop stop-color="#685EEB"/>
<stop offset="1" stop-color="#56EFC4"/>
</linearGradient>
</defs>
</svg>
